<svg style="background:#BAFF26;" width="256" height="256" viewBox="0 0 256 256" fill="none" xmlns="http://www.w3.org/2000/svg">
  <style>
    path {
      fill: #000;
    }
  </style>
  <g clip-path="url(#clip0_2221_7346)">
    <path d="M161.432 192.827C179.62 192.827 194.364 163.317 194.364 126.914C194.364 90.5105 179.62 61 161.432 61C143.244 61 128.5 90.5105 128.5 126.914C128.5 163.317 143.244 192.827 161.432 192.827Z" />
    <path d="M112.396 194.292C121.49 194.292 128.862 164.453 128.862 127.646C128.862 90.8384 121.49 61 112.396 61C103.302 61 95.9302 90.8384 95.9302 127.646C95.9302 164.453 103.302 194.292 112.396 194.292Z" />
    <path d="M87.6066 192.827C92.2035 192.827 95.9301 163.317 95.9301 126.914C95.9301 90.5105 92.2035 61 87.6066 61C83.0097 61 79.2832 90.5105 79.2832 126.914C79.2832 163.317 83.0097 192.827 87.6066 192.827Z" />
    <path d="M74.9406 192.827C77.3389 192.827 79.2832 163.317 79.2832 126.914C79.2832 90.5105 77.3389 61 74.9406 61C72.5422 61 70.5979 90.5105 70.5979 126.914C70.5979 163.317 72.5422 192.827 74.9406 192.827Z" />
    <path d="M68.4265 192.827C69.6256 192.827 70.5978 163.317 70.5978 126.914C70.5978 90.5105 69.6256 61 68.4265 61C67.2273 61 66.2551 90.5105 66.2551 126.914C66.2551 163.317 67.2273 192.827 68.4265 192.827Z" />
    <path d="M128.5 137.778C185.661 137.778 232 132.752 232 126.551C232 120.351 185.661 115.324 128.5 115.324C71.3385 115.324 25 120.351 25 126.551C25 132.752 71.3385 137.778 128.5 137.778Z" />
  </g>
</svg>
